# xmcd CD database file
#
# Track frame offsets:
#	150
#	12395
#	27782
#	44880
#	63285
#	85012
#	99082
#	117327
#	132202
#	142820
#	164435
#	181197
#
# Disc length: 2571 seconds
#
# Revision: 0
# Processed by: cddbd v1.5.1PL0 Copyright (c) Steve Scherf et al.
# Submitted via: CDex 1.60beta1
#
DISCID=940a090c
DTITLE=Kenny Blackwell and Dorian Michael - Kenny Blackwell and Dorian Michael
DYEAR=2002
DGENRE=Country
TTITLE0=El Morro
TTITLE1=The Road To Somewhere
TTITLE2=Fairfield
TTITLE3=Blowing Smoke
TTITLE4=Pour Un Gitane
TTITLE5=Farewell To Glendalough
TTITLE6=Lonesome Moonlight Waltz
TTITLE7=Litte Rabbit
TTITLE8=Southwind
TTITLE9=Propane Blues
TTITLE10=One Without the Other
TTITLE11=Sonnie's Stomp
EXTD=YEAR: 2002
EXTT0=
EXTT1=
EXTT2=
EXTT3=
EXTT4=
EXTT5=
EXTT6=
EXTT7=
EXTT8=
EXTT9=
EXTT10=
EXTT11=
PLAYORDER=
